G04*
G04 #@! TF.GenerationSoftware,Altium Limited,Altium Designer,20.1.10 (176)*
G04*
G04 Layer_Physical_Order=2*
G04 Layer_Color=16711680*
%FSLAX25Y25*%
%MOIN*%
G70*
G04*
G04 #@! TF.SameCoordinates,773EA745-F9F6-403D-839C-D9EBE2D74CCE*
G04*
G04*
G04 #@! TF.FilePolarity,Positive*
G04*
G01*
G75*
%ADD10C,0.01181*%
%ADD12C,0.01575*%
%ADD19R,0.04921X0.06693*%
%ADD20R,0.04016X0.05787*%
%ADD40C,0.02362*%
%ADD41C,0.03937*%
%ADD42C,0.06496*%
%ADD43R,0.06024X0.06024*%
%ADD44C,0.06024*%
%ADD45C,0.02362*%
%ADD46R,0.12598X0.07087*%
%ADD47R,0.03740X0.07087*%
%ADD48R,0.03622X0.05433*%
%ADD49R,0.09449X0.07087*%
%ADD50R,0.04528X0.05787*%
%ADD51R,0.05787X0.04528*%
%ADD52R,0.11614X0.07677*%
%ADD53R,0.01370X0.05500*%
G36*
X225500Y150000D02*
X226855D01*
Y149319D01*
X232445D01*
X232650Y148904D01*
Y145500D01*
X231483D01*
X230931Y146053D01*
X230475Y146357D01*
X229937Y146464D01*
X225940D01*
X225402Y146357D01*
X224947Y146053D01*
X224925Y146031D01*
X221456D01*
X217993Y149494D01*
X217538Y149798D01*
X217000Y149905D01*
X213500D01*
X213500Y156000D01*
X225500Y156000D01*
Y150000D01*
D02*
G37*
G36*
X167500Y136000D02*
X168000Y135500D01*
X166905Y134405D01*
X162000D01*
X161462Y134298D01*
X161006Y133993D01*
X159418Y132405D01*
X157903D01*
X157636Y132905D01*
X157854Y133232D01*
X158007Y134000D01*
X157854Y134768D01*
X157419Y135419D01*
X156768Y135854D01*
X156000Y136007D01*
X155232Y135854D01*
X154581Y135419D01*
X154571Y135405D01*
X131964D01*
Y141950D01*
X132162Y142125D01*
X132236Y142141D01*
X132780Y142031D01*
X133081Y141581D01*
X133732Y141146D01*
X134500Y140993D01*
X135268Y141146D01*
X135919Y141581D01*
X136354Y142232D01*
X136361Y142266D01*
X141235D01*
X141244Y142261D01*
X141858Y142138D01*
X141858Y142138D01*
X152944D01*
X152944Y142138D01*
X153559Y142261D01*
X153917Y142500D01*
X167500D01*
Y136000D01*
D02*
G37*
G36*
X255161Y147496D02*
X256355D01*
Y144747D01*
X256008Y144701D01*
X255084Y144319D01*
X254290Y143710D01*
X253681Y142916D01*
X253299Y141992D01*
X253168Y141000D01*
X253299Y140008D01*
X253681Y139084D01*
X254290Y138290D01*
X255084Y137681D01*
X256008Y137299D01*
X257000Y137168D01*
X257992Y137299D01*
X258916Y137681D01*
X259052Y137785D01*
X259500Y137564D01*
Y134436D01*
X259052Y134215D01*
X258916Y134319D01*
X257992Y134701D01*
X257000Y134832D01*
X256008Y134701D01*
X255084Y134319D01*
X254290Y133710D01*
X253681Y132916D01*
X253299Y131992D01*
X253168Y131000D01*
X253299Y130008D01*
X253681Y129084D01*
X254290Y128290D01*
X255084Y127681D01*
X256008Y127299D01*
X257000Y127168D01*
X257992Y127299D01*
X258916Y127681D01*
X259052Y127785D01*
X259500Y127564D01*
Y124799D01*
X253201D01*
Y117201D01*
X259500D01*
Y116303D01*
X250166D01*
X250088Y116287D01*
X250009D01*
X249943Y116274D01*
X249943D01*
X249870Y116244D01*
X249858Y116242D01*
X249849Y116235D01*
X249654Y116154D01*
X249432Y115933D01*
X249352Y115738D01*
X249345Y115728D01*
X249343Y115717D01*
X249312Y115644D01*
Y115644D01*
X249299Y115577D01*
Y115498D01*
X249284Y115421D01*
Y109622D01*
X244464D01*
Y115441D01*
X244357Y115979D01*
X244053Y116434D01*
X242494Y117993D01*
X242038Y118298D01*
X241500Y118405D01*
X238166D01*
Y122125D01*
X238268Y122146D01*
X238919Y122581D01*
X239354Y123232D01*
X239507Y124000D01*
X239504Y124017D01*
X243809Y128322D01*
X244290Y128290D01*
X245084Y127681D01*
X246008Y127299D01*
X247000Y127168D01*
X247992Y127299D01*
X248916Y127681D01*
X249710Y128290D01*
X250319Y129084D01*
X250701Y130008D01*
X250832Y131000D01*
X250701Y131992D01*
X250319Y132916D01*
X249710Y133710D01*
X248916Y134319D01*
X247992Y134701D01*
X247000Y134832D01*
X246008Y134701D01*
X245084Y134319D01*
X244290Y133710D01*
X243681Y132916D01*
X243299Y131992D01*
X243222Y131408D01*
X243036Y131371D01*
X242580Y131067D01*
X241647Y130134D01*
X241508Y130178D01*
X241200Y130394D01*
X241280Y131000D01*
Y142082D01*
X241780Y142289D01*
X243183Y140886D01*
X243299Y140008D01*
X243681Y139084D01*
X244290Y138290D01*
X245084Y137681D01*
X246008Y137299D01*
X247000Y137168D01*
X247992Y137299D01*
X248916Y137681D01*
X249710Y138290D01*
X250319Y139084D01*
X250701Y140008D01*
X250832Y141000D01*
X250701Y141992D01*
X250319Y142916D01*
X249710Y143710D01*
X248916Y144319D01*
X247992Y144701D01*
X247114Y144817D01*
X246280Y145651D01*
Y151500D01*
X246185Y152219D01*
X246069Y152500D01*
X246403Y153000D01*
X255161D01*
Y147496D01*
D02*
G37*
G36*
X187496Y136017D02*
X187493Y136000D01*
X187646Y135232D01*
X188000Y134702D01*
Y133516D01*
X187319D01*
Y127413D01*
X188000D01*
Y126787D01*
X187922D01*
X187856Y126774D01*
X187856D01*
X187811Y126756D01*
X187778Y126743D01*
X187772Y126742D01*
X187595Y126675D01*
X187363Y126587D01*
X187319D01*
X187226Y126144D01*
X187226Y126143D01*
X187213Y126077D01*
Y125998D01*
X187197Y125921D01*
Y115819D01*
X180752D01*
Y115809D01*
X180282Y115803D01*
X179764Y115803D01*
X179748Y115819D01*
Y115819D01*
X173252D01*
Y115803D01*
X171579D01*
X171502Y115787D01*
X171423D01*
X171349Y115773D01*
X171349Y115773D01*
X171349D01*
X171276Y115743D01*
X171272Y115742D01*
X171268Y115739D01*
X171263Y115737D01*
X171193Y115723D01*
X171133Y115683D01*
X171060Y115653D01*
X171060Y115653D01*
X171060Y115653D01*
X171054Y115649D01*
X170998Y115593D01*
X170932Y115549D01*
X170929Y115545D01*
X170441Y115556D01*
X170202Y116004D01*
X170354Y116232D01*
X170507Y117000D01*
X170354Y117768D01*
X169919Y118419D01*
X169268Y118854D01*
X168500Y119007D01*
X167732Y118854D01*
X167081Y118419D01*
X166646Y117768D01*
X166493Y117000D01*
X166646Y116232D01*
X166798Y116004D01*
X166531Y115504D01*
X166161D01*
Y108496D01*
X170697D01*
Y106000D01*
X146507D01*
Y109500D01*
Y112000D01*
X146354Y112768D01*
X146000Y113298D01*
Y114095D01*
X149000D01*
X149538Y114202D01*
X149994Y114506D01*
X151494Y116007D01*
X151798Y116462D01*
X151905Y117000D01*
Y118069D01*
X152106D01*
Y120014D01*
X152768Y120146D01*
X153419Y120581D01*
X153854Y121232D01*
X154007Y122000D01*
X153854Y122768D01*
X153419Y123419D01*
X152768Y123854D01*
X152106Y123986D01*
Y125144D01*
X151384D01*
X151177Y125599D01*
X152866Y127536D01*
X157941D01*
X158479Y127643D01*
X158934Y127947D01*
X162582Y131595D01*
X175367D01*
X175905Y131702D01*
X176361Y132007D01*
X177052Y132698D01*
X177357Y133154D01*
X177464Y133692D01*
Y137477D01*
X178582Y138595D01*
X184918D01*
X187496Y136017D01*
D02*
G37*
G36*
X219095Y122918D02*
Y121929D01*
X219081Y121919D01*
X218646Y121268D01*
X218493Y120500D01*
X218646Y119732D01*
X218834Y119450D01*
X218533Y119000D01*
X218500Y119007D01*
X217732Y118854D01*
X217543Y118728D01*
X217102Y118964D01*
Y119626D01*
X215763D01*
Y119744D01*
X215610Y120512D01*
X215175Y121163D01*
X214919Y121419D01*
X214268Y121854D01*
X213500Y122007D01*
X212732Y121854D01*
X212081Y121419D01*
X211646Y120768D01*
X211493Y120000D01*
X211646Y119232D01*
X211749Y119077D01*
Y115984D01*
X211788Y115790D01*
Y110964D01*
X214836D01*
X215027Y110502D01*
X213930Y109405D01*
X209399D01*
X208968Y109802D01*
X209007Y110000D01*
X208854Y110768D01*
X208419Y111419D01*
X208095Y111636D01*
Y117161D01*
X194905D01*
Y113994D01*
X194681Y113587D01*
X187319D01*
Y107484D01*
X194681D01*
Y107502D01*
X194905Y107909D01*
X199229D01*
X199345Y107736D01*
X199423Y107409D01*
X198013Y106000D01*
X171500D01*
Y114981D01*
X171506Y114986D01*
X171579Y115000D01*
X173252D01*
X179748D01*
X180282Y115000D01*
X188000D01*
Y125921D01*
X188013Y125987D01*
X188079Y126000D01*
X194905D01*
Y124839D01*
X208095D01*
Y126000D01*
X216013D01*
X219095Y122918D01*
D02*
G37*
G36*
X229834Y125500D02*
X229775Y125055D01*
Y116132D01*
X229870Y115412D01*
X229898Y115346D01*
Y110964D01*
X230500D01*
Y110964D01*
Y110964D01*
X235212D01*
Y115346D01*
X235240Y115412D01*
X235251Y115500D01*
X241013D01*
X241654Y114859D01*
Y106000D01*
X230769D01*
X230500Y106274D01*
Y106000D01*
X221620D01*
X221312Y106375D01*
X221160Y107143D01*
X220725Y107794D01*
X220074Y108229D01*
X219305Y108382D01*
X218537Y108229D01*
X217886Y107794D01*
X217626Y107405D01*
X216557D01*
X216366Y107867D01*
X219500Y111001D01*
X219804Y111456D01*
X219911Y111994D01*
Y115575D01*
X219919Y115581D01*
X220354Y116232D01*
X220507Y117000D01*
X220354Y117768D01*
X220166Y118050D01*
X220467Y118500D01*
X220500Y118493D01*
X221268Y118646D01*
X221919Y119081D01*
X222354Y119732D01*
X222507Y120500D01*
X222354Y121268D01*
X221919Y121919D01*
X221905Y121929D01*
Y123500D01*
X221798Y124038D01*
X221493Y124494D01*
X220449Y125538D01*
X220640Y126000D01*
X229467D01*
X229834Y125500D01*
D02*
G37*
G36*
X259500Y106000D02*
X244464D01*
Y108819D01*
X250087D01*
Y115421D01*
X250100Y115487D01*
X250166Y115500D01*
X259500D01*
Y106000D01*
D02*
G37*
D10*
X229937Y145059D02*
X231177Y143819D01*
X225940Y145059D02*
X229937D01*
X231177Y135500D02*
Y143819D01*
X168500Y112260D02*
Y117000D01*
X141068Y112187D02*
X144381Y115500D01*
X141068Y110417D02*
Y112187D01*
X135894Y113271D02*
X139271D01*
X134767Y112145D02*
X135894Y113271D01*
X135307Y115469D02*
X138469D01*
X124260Y109906D02*
X124500Y110146D01*
Y112000D01*
X127000Y114500D01*
X134339D01*
X135307Y115469D01*
X134767Y110417D02*
Y112145D01*
X133350Y109000D02*
X134767Y110417D01*
X139271Y113271D02*
X143478Y117478D01*
X140398Y117398D02*
Y121606D01*
X138469Y115469D02*
X140398Y117398D01*
X139650Y109000D02*
X141068Y110417D01*
X118940Y136441D02*
X123503D01*
X118597Y134000D02*
X128000D01*
X117441Y137940D02*
X118940Y136441D01*
X123503D02*
X125062Y138000D01*
X115316Y137281D02*
X118597Y134000D01*
X115316Y137281D02*
Y146279D01*
X117500Y140119D02*
Y144150D01*
X117441Y140060D02*
X117500Y140119D01*
X125062Y138000D02*
X128000D01*
X117441Y137940D02*
Y140060D01*
X130559Y134692D02*
Y142849D01*
X135185Y147475D01*
Y150299D01*
X135280Y150394D01*
X131251Y134000D02*
X156000D01*
X130559Y134692D02*
X131251Y134000D01*
X160000Y131000D02*
X162000Y133000D01*
X115692Y131000D02*
X160000D01*
X115000Y107692D02*
Y130308D01*
X115692Y131000D01*
X117272Y148234D02*
X117272D01*
X115316Y146279D02*
X117272Y148234D01*
X117272D02*
X117366Y148329D01*
X117500Y144150D02*
X119925Y146575D01*
Y150394D02*
X119925Y150394D01*
X119925Y146575D02*
Y150394D01*
X176059Y133692D02*
Y138059D01*
X162000Y133000D02*
X175367D01*
X176059Y133692D01*
Y138059D02*
X178000Y140000D01*
X185500D01*
X189500Y136000D01*
X168001Y144188D02*
Y145999D01*
X169102Y140398D02*
X173500Y136000D01*
X168000Y146000D02*
X168001Y145999D01*
Y144188D02*
X169102Y143087D01*
Y140398D02*
Y143087D01*
X189250Y157250D02*
X193551Y152949D01*
X162750Y157250D02*
X189250D01*
X193551Y147330D02*
Y152949D01*
X157458Y155000D02*
X188500D01*
X191500Y145903D02*
Y152000D01*
X188500Y155000D02*
X191500Y152000D01*
X187308Y153000D02*
X189500Y150808D01*
X151890Y154522D02*
X153411Y153000D01*
X187308D01*
X189500Y143500D02*
Y150808D01*
X176240Y147500D02*
X176796Y146944D01*
Y143704D02*
Y146944D01*
Y143704D02*
X178032Y142469D01*
X185815D01*
X189500Y143500D02*
X195500Y137500D01*
X191500Y145903D02*
X197403Y140000D01*
X214000D01*
X151874Y160584D02*
X157458Y155000D01*
X157500Y162500D02*
X162750Y157250D01*
X156500Y162500D02*
X157500D01*
X195500Y137500D02*
X210000D01*
X187094Y142405D02*
X194000Y135500D01*
X185878Y142405D02*
X187094D01*
X194000Y135500D02*
X208500D01*
X198440Y142441D02*
X204941D01*
X193551Y147330D02*
X198440Y142441D01*
X208000Y145500D02*
X216000D01*
X204941Y142441D02*
X208000Y145500D01*
X117366Y148329D02*
Y150394D01*
X139500Y155500D02*
X144000D01*
X137933Y162500D02*
X142374Y158059D01*
X145060D02*
X145245Y157874D01*
X148537D01*
X142374Y158059D02*
X145060D01*
X138000Y154000D02*
X139500Y155500D01*
X151890Y154522D02*
X151890D01*
X148537Y157874D02*
X151890Y154522D01*
X138000Y153155D02*
Y154000D01*
X137933Y150488D02*
Y153088D01*
X137839Y150394D02*
X137933Y150488D01*
Y153088D02*
X138000Y153155D01*
X139650Y104335D02*
Y109000D01*
X137000Y101685D02*
X139650Y104335D01*
X137000Y101000D02*
Y101685D01*
X144381Y115500D02*
X149000D01*
X150539Y121512D02*
X150634Y121606D01*
X150539Y118912D02*
Y121512D01*
X150500Y118873D02*
X150539Y118912D01*
X150500Y117000D02*
Y118873D01*
X149000Y115500D02*
X150500Y117000D01*
X146772Y117478D02*
X146793Y117500D01*
X147308D02*
X147980Y118172D01*
X146793Y117500D02*
X147308D01*
X147980Y118172D02*
Y121512D01*
X143478Y117478D02*
X146772D01*
X147980Y121512D02*
X148075Y121606D01*
X116740Y108095D02*
Y109000D01*
Y108095D02*
X117961Y106874D01*
X118866D01*
X123723Y102017D01*
X125983D01*
X127000Y101000D01*
X115000Y107692D02*
X115192Y107500D01*
X228000Y134000D02*
X229677D01*
X213500D02*
X228000D01*
X210000Y137500D02*
X213500Y134000D01*
X229677D02*
X231177Y135500D01*
X231874Y157874D02*
X236500Y162500D01*
X214584Y157874D02*
X231874D01*
X185815Y142469D02*
X185878Y142405D01*
X236761Y117692D02*
X237453Y117000D01*
X241500D01*
X243059Y115441D01*
Y104941D02*
Y115441D01*
X236761Y117692D02*
Y122941D01*
X237500Y123680D02*
Y124000D01*
X236761Y122941D02*
X237500Y123680D01*
Y124000D02*
X243573Y130073D01*
X217000Y148500D02*
X220873Y144626D01*
X225507D02*
X225940Y145059D01*
X220873Y144626D02*
X225507D01*
X257000Y141000D02*
X257760Y141760D01*
Y151000D01*
X243059Y104941D02*
X245748Y102252D01*
X246252D01*
X243573Y130073D02*
X246073D01*
X247000Y131000D01*
X209692Y148500D02*
X217000D01*
X209000Y149192D02*
Y152650D01*
Y149192D02*
X209692Y148500D01*
X206172Y157874D02*
X208416D01*
X208542Y158000D01*
X214458D01*
X205480Y152720D02*
Y157182D01*
X206172Y157874D01*
X214458Y158000D02*
X214584Y157874D01*
X204260Y151500D02*
X205480Y152720D01*
X204260Y146282D02*
Y151500D01*
X203677Y131177D02*
X205177Y129677D01*
X218930Y106000D02*
X219305Y106375D01*
X207562Y103000D02*
X210562Y106000D01*
X218930D01*
X209216Y108000D02*
X214512D01*
X218506Y111994D01*
X192000Y129465D02*
X201500D01*
X191000Y130465D02*
X192000Y129465D01*
X203677Y131177D02*
X205177Y129677D01*
X203354Y131500D02*
X204000D01*
X203354D02*
X205177Y129677D01*
X203250Y145273D02*
X204260Y146282D01*
X203250Y145000D02*
Y145273D01*
X205177Y129677D02*
X205323D01*
X205177D02*
X206000Y128854D01*
X208500Y135500D02*
X220500Y123500D01*
Y120500D02*
Y123500D01*
X218506Y111994D02*
Y116994D01*
X218500Y117000D02*
X218506Y116994D01*
X207716Y106500D02*
X209216Y108000D01*
X191000Y112035D02*
X200035D01*
X136500Y162500D02*
X137933D01*
X147933D02*
X149849Y160584D01*
X151874D01*
X146500Y162500D02*
X147933D01*
X205323Y128177D02*
X206000Y128854D01*
X200500Y106500D02*
X207716D01*
X197562Y103000D02*
X198017Y103455D01*
Y104017D01*
X200500Y106500D01*
X196500Y151260D02*
X196740Y151500D01*
X196500Y148000D02*
Y151260D01*
D12*
X120495Y117281D02*
X134058D01*
X135177Y118401D01*
X119713Y116500D02*
X120495Y117281D01*
X119500Y116500D02*
X119713D01*
X135177Y118401D02*
Y121504D01*
X135280Y121606D01*
X120000Y139000D02*
X123000D01*
X125256Y141256D01*
X120000Y127500D02*
X125500D01*
X126500Y128500D01*
X142078D02*
X143000Y127577D01*
X126500Y128500D02*
X142078D01*
X143000Y121650D02*
Y127577D01*
X134500Y143000D02*
X134613D01*
X135485Y143872D02*
X141730D01*
X134613Y143000D02*
X135485Y143872D01*
X142957Y121606D02*
X143000Y121650D01*
X252000Y114012D02*
X252488Y114500D01*
X252500Y110500D02*
Y113512D01*
X125256Y141256D02*
Y145078D01*
X126178Y146000D02*
X129000D01*
X125256Y145078D02*
X126178Y146000D01*
X130161Y147161D02*
Y150394D01*
X129000Y146000D02*
X130161Y147161D01*
X141858Y143744D02*
X152944D01*
X141730Y143872D02*
X141858Y143744D01*
X122492Y143508D02*
Y150386D01*
X152944Y143744D02*
X156200Y147000D01*
X122484Y150394D02*
X122492Y150386D01*
Y143508D02*
X122500Y143500D01*
X142957Y146543D02*
Y150394D01*
Y146543D02*
X143000Y146500D01*
X132720Y150394D02*
X132823Y150496D01*
Y154110D01*
X133000Y154287D01*
Y154500D01*
X125043Y150394D02*
Y153830D01*
X126000Y154787D01*
Y155000D01*
X122484Y150394D02*
Y158484D01*
X126500Y162500D01*
X234256Y136969D02*
Y150077D01*
X234000Y136713D02*
X234256Y136969D01*
X233333Y151000D02*
X234256Y150077D01*
X229650Y152221D02*
X230871Y151000D01*
X229650Y152221D02*
Y153000D01*
X230871Y151000D02*
X233333D01*
X234000Y136500D02*
Y136713D01*
X252000Y114012D02*
X252500Y113512D01*
X253965Y112500D02*
Y113024D01*
X252488Y114500D02*
X253965Y113024D01*
X168500Y112260D02*
X168760Y112000D01*
X191000Y119465D02*
Y123535D01*
D19*
X176500Y111685D02*
D03*
Y122315D02*
D03*
X184000Y111685D02*
D03*
Y122315D02*
D03*
D20*
X156200Y147000D02*
D03*
X162500D02*
D03*
X209350Y153000D02*
D03*
X215650D02*
D03*
X229650D02*
D03*
X223350D02*
D03*
X133350Y109000D02*
D03*
X139650D02*
D03*
D40*
X161500Y147500D02*
X163150Y149150D01*
X169305D01*
X171152Y147302D01*
Y145348D02*
Y147302D01*
Y145348D02*
X173000Y143500D01*
X161500Y147500D02*
X162000Y147000D01*
X144500Y109500D02*
Y112000D01*
Y104451D02*
Y109500D01*
X147000Y101000D02*
Y101951D01*
X144500Y104451D02*
X147000Y101951D01*
X213756Y115984D02*
X214445Y115295D01*
X213756Y115984D02*
Y119744D01*
X213500Y120000D02*
X213756Y119744D01*
D41*
X232555Y116132D02*
Y125055D01*
X238000Y130500D01*
Y152836D01*
X241636Y156473D01*
X250472D01*
X256500Y162500D01*
X243500Y144500D02*
X247000Y141000D01*
X243500Y144500D02*
Y151500D01*
D42*
X256500Y162500D02*
D03*
X246500D02*
D03*
X236500D02*
D03*
X226500D02*
D03*
X216500D02*
D03*
X206500D02*
D03*
X196500D02*
D03*
X186500D02*
D03*
X176500D02*
D03*
X166500D02*
D03*
X156500D02*
D03*
X146500D02*
D03*
X136500D02*
D03*
X126500D02*
D03*
X116500D02*
D03*
X117000Y101000D02*
D03*
X127000D02*
D03*
X137000D02*
D03*
X147000D02*
D03*
X157000D02*
D03*
X167000D02*
D03*
X177000D02*
D03*
X187000D02*
D03*
X197000D02*
D03*
X207000D02*
D03*
X217000D02*
D03*
X227000D02*
D03*
X237000D02*
D03*
X247000D02*
D03*
X257000D02*
D03*
D43*
Y121000D02*
D03*
D44*
X247000D02*
D03*
X257000Y131000D02*
D03*
X247000D02*
D03*
X257000Y141000D02*
D03*
X247000D02*
D03*
D45*
X231500Y147500D02*
D03*
X168500Y117000D02*
D03*
X119500Y116500D02*
D03*
X120000Y139000D02*
D03*
Y127500D02*
D03*
X128000Y138000D02*
D03*
Y134000D02*
D03*
X168000Y146000D02*
D03*
X173500Y136000D02*
D03*
X152000Y122000D02*
D03*
X156000Y134000D02*
D03*
X134500Y143000D02*
D03*
X173000Y143500D02*
D03*
X175500Y150000D02*
D03*
X182000Y145500D02*
D03*
X161500Y147500D02*
D03*
X144000Y155500D02*
D03*
X146000Y140500D02*
D03*
X139764Y141067D02*
D03*
X126000Y155000D02*
D03*
X143000Y146500D02*
D03*
X133000Y154500D02*
D03*
X144500Y109500D02*
D03*
Y112000D02*
D03*
X122500Y143500D02*
D03*
X228000Y134000D02*
D03*
X216000Y145500D02*
D03*
X213500Y120000D02*
D03*
X182543Y129000D02*
D03*
X183339Y136000D02*
D03*
X229500Y154500D02*
D03*
X234000Y136500D02*
D03*
X242000Y139000D02*
D03*
X247000Y113500D02*
D03*
Y117000D02*
D03*
X227000Y142500D02*
D03*
X243500Y151500D02*
D03*
X255551Y109000D02*
D03*
X240500D02*
D03*
X200500Y119000D02*
D03*
X237500Y124000D02*
D03*
X214000Y140000D02*
D03*
X219305Y106375D02*
D03*
X204000Y131500D02*
D03*
X220500Y120500D02*
D03*
X218500Y117000D02*
D03*
X207000Y110000D02*
D03*
X189500Y136000D02*
D03*
X203250Y145000D02*
D03*
X196500Y148000D02*
D03*
D46*
X223500Y139705D02*
D03*
D47*
X214445Y115295D02*
D03*
X223500D02*
D03*
X232555D02*
D03*
D48*
X250240Y151000D02*
D03*
X257760D02*
D03*
X204260Y151500D02*
D03*
X196740D02*
D03*
X183760Y148000D02*
D03*
X176240D02*
D03*
X124260Y109000D02*
D03*
X116740D02*
D03*
X161240Y112000D02*
D03*
X168760D02*
D03*
D49*
X163000Y138972D02*
D03*
Y123028D02*
D03*
D50*
X247035Y112500D02*
D03*
X253965D02*
D03*
D51*
X191000Y110535D02*
D03*
Y117465D02*
D03*
Y130465D02*
D03*
Y123535D02*
D03*
D52*
X201500Y129465D02*
D03*
Y112535D02*
D03*
D53*
X117366Y121606D02*
D03*
X119925D02*
D03*
X122484D02*
D03*
X125043D02*
D03*
X127602D02*
D03*
X130161D02*
D03*
X132720D02*
D03*
X135280D02*
D03*
X137839D02*
D03*
X140398D02*
D03*
X142957D02*
D03*
X145516D02*
D03*
X148075D02*
D03*
X150634D02*
D03*
X117366Y150394D02*
D03*
X119925D02*
D03*
X122484D02*
D03*
X125043D02*
D03*
X127602D02*
D03*
X132720D02*
D03*
X130161D02*
D03*
X135280D02*
D03*
X137839D02*
D03*
X140398D02*
D03*
X142957D02*
D03*
X145516D02*
D03*
X148075D02*
D03*
X150634D02*
D03*
M02*
