G04*
G04 #@! TF.GenerationSoftware,Altium Limited,Altium Designer,20.1.10 (176)*
G04*
G04 Layer_Color=32896*
%FSLAX25Y25*%
%MOIN*%
G70*
G04*
G04 #@! TF.SameCoordinates,773EA745-F9F6-403D-839C-D9EBE2D74CCE*
G04*
G04*
G04 #@! TF.FilePolarity,Positive*
G04*
G01*
G75*
%ADD13C,0.00500*%
%ADD62C,0.00600*%
%ADD63C,0.00394*%
%ADD64C,0.00800*%
G36*
X158176Y129465D02*
Y126806D01*
X167823D01*
Y129465D01*
X158176D01*
D02*
G37*
D13*
X253331Y148323D02*
X254669D01*
X253331Y153677D02*
X254669D01*
X199831Y154177D02*
X201169D01*
X199831Y148823D02*
X201169D01*
X179331Y150677D02*
X180669D01*
X179331Y145323D02*
X180669D01*
X119831Y111677D02*
X121169D01*
X119831Y106323D02*
X121169D01*
X164331Y109323D02*
X165669D01*
X164331Y114677D02*
X165669D01*
X194807Y111158D02*
Y130842D01*
X208193Y111158D02*
Y130842D01*
D62*
X152200Y128000D02*
G03*
X152200Y128000I-1200J0D01*
G01*
X154472Y124484D02*
Y147516D01*
X113528Y124484D02*
X154472D01*
X113528D02*
Y147516D01*
X154472D01*
D63*
X260693Y147063D02*
Y154543D01*
X247307Y147063D02*
X260693D01*
X247307D02*
Y154937D01*
X260693D01*
Y154543D02*
Y154937D01*
X193807Y147957D02*
Y155437D01*
X207193D01*
Y147563D02*
Y155437D01*
X193807Y147563D02*
X207193D01*
X193807D02*
Y147957D01*
X157095Y118402D02*
X168905D01*
X157095D02*
Y143598D01*
X168905D01*
Y118402D02*
Y143598D01*
X243807Y116437D02*
X257193D01*
X243807Y108563D02*
Y116437D01*
Y108563D02*
X257193D01*
Y116437D01*
X187063Y107307D02*
Y120693D01*
Y107307D02*
X194937D01*
Y120693D01*
X187063D02*
X194937D01*
Y120307D02*
Y133693D01*
X187063D02*
X194937D01*
X187063Y120307D02*
Y133693D01*
Y120307D02*
X194937D01*
X173307Y144457D02*
Y151937D01*
X186693D01*
Y144063D02*
Y151937D01*
X173307Y144063D02*
X186693D01*
X173307D02*
Y144457D01*
X113807Y105457D02*
Y112937D01*
X127193D01*
Y105063D02*
Y112937D01*
X113807Y105063D02*
X127193D01*
X113807D02*
Y105457D01*
X171693Y108063D02*
Y115543D01*
X158307Y108063D02*
X171693D01*
X158307D02*
Y115937D01*
X171693D01*
Y115543D02*
Y115937D01*
D64*
X157882Y126925D02*
Y135035D01*
X168118Y126925D02*
Y135035D01*
M02*
