G04*
G04 #@! TF.GenerationSoftware,Altium Limited,Altium Designer,20.1.10 (176)*
G04*
G04 Layer_Color=32768*
%FSLAX25Y25*%
%MOIN*%
G70*
G04*
G04 #@! TF.SameCoordinates,773EA745-F9F6-403D-839C-D9EBE2D74CCE*
G04*
G04*
G04 #@! TF.FilePolarity,Positive*
G04*
G01*
G75*
%ADD65C,0.00394*%
%ADD66C,0.00197*%
D65*
X163287Y144539D02*
Y149461D01*
X155413Y144539D02*
X163287D01*
X155413D02*
Y149461D01*
X163287D01*
X216437Y150539D02*
Y155461D01*
X208563Y150539D02*
X216437D01*
X208563D02*
Y155461D01*
X216437D01*
X227240Y120610D02*
X236295Y129665D01*
X210705Y120610D02*
X236295D01*
X210705D02*
Y134390D01*
X236295D01*
Y120610D02*
Y134390D01*
X173350Y120839D02*
X175811Y123299D01*
X173350D02*
X179650D01*
Y110701D02*
Y123299D01*
X173350Y110701D02*
X179650D01*
X173350D02*
Y123299D01*
X180850Y120839D02*
X183311Y123299D01*
X180850D02*
X187150D01*
Y110701D02*
Y123299D01*
X180850Y110701D02*
X187150D01*
X180850D02*
Y123299D01*
X144350Y124661D02*
X146811Y122201D01*
X144350D02*
X150650D01*
Y134799D01*
X144350D02*
X150650D01*
X144350Y122201D02*
Y134799D01*
X222563Y150539D02*
Y155461D01*
X230437D01*
Y150539D02*
Y155461D01*
X222563Y150539D02*
X230437D01*
X152937Y139039D02*
Y143961D01*
X145063D02*
X152937D01*
X145063Y139039D02*
Y143961D01*
Y139039D02*
X152937D01*
X140437Y106539D02*
Y111461D01*
X132563Y106539D02*
X140437D01*
X132563D02*
Y111461D01*
X140437D01*
D66*
X165098Y143496D02*
Y150504D01*
X153602Y143496D02*
X165098D01*
X153602D02*
Y150504D01*
X165098D01*
X218248Y149496D02*
Y156504D01*
X206752Y149496D02*
X218248D01*
X206752D02*
Y156504D01*
X218248D01*
X209327Y110768D02*
X237673D01*
X209327D02*
Y144232D01*
X237673D01*
Y110768D02*
Y144232D01*
X171972Y126646D02*
X181028D01*
Y107354D02*
Y126646D01*
X171972Y107354D02*
X181028D01*
X171972D02*
Y126646D01*
X179472D02*
X188528D01*
Y107354D02*
Y126646D01*
X179472Y107354D02*
X188528D01*
X179472D02*
Y126646D01*
X142972Y118854D02*
X152028D01*
Y138146D01*
X142972D02*
X152028D01*
X142972Y118854D02*
Y138146D01*
X220752Y149496D02*
Y156504D01*
X232248D01*
Y149496D02*
Y156504D01*
X220752Y149496D02*
X232248D01*
X154748Y137996D02*
Y145004D01*
X143252D02*
X154748D01*
X143252Y137996D02*
Y145004D01*
Y137996D02*
X154748D01*
X142248Y105496D02*
Y112504D01*
X130752Y105496D02*
X142248D01*
X130752D02*
Y112504D01*
X142248D01*
M02*
