G04*
G04 #@! TF.GenerationSoftware,Altium Limited,Altium Designer,20.1.10 (176)*
G04*
G04 Layer_Color=8421504*
%FSLAX25Y25*%
%MOIN*%
G70*
G04*
G04 #@! TF.SameCoordinates,773EA745-F9F6-403D-839C-D9EBE2D74CCE*
G04*
G04*
G04 #@! TF.FilePolarity,Positive*
G04*
G01*
G75*
%ADD14R,0.04331X0.05709*%
G04:AMPARAMS|DCode=15|XSize=20mil|YSize=58mil|CornerRadius=0mil|HoleSize=0mil|Usage=FLASHONLY|Rotation=225.000|XOffset=0mil|YOffset=0mil|HoleType=Round|Shape=Rectangle|*
%AMROTATEDRECTD15*
4,1,4,-0.01344,0.02758,0.02758,-0.01344,0.01344,-0.02758,-0.02758,0.01344,-0.01344,0.02758,0.0*
%
%ADD15ROTATEDRECTD15*%

G04:AMPARAMS|DCode=16|XSize=20mil|YSize=58mil|CornerRadius=0mil|HoleSize=0mil|Usage=FLASHONLY|Rotation=315.000|XOffset=0mil|YOffset=0mil|HoleType=Round|Shape=Rectangle|*
%AMROTATEDRECTD16*
4,1,4,-0.02758,-0.01344,0.01344,0.02758,0.02758,0.01344,-0.01344,-0.02758,-0.02758,-0.01344,0.0*
%
%ADD16ROTATEDRECTD16*%

G04:AMPARAMS|DCode=17|XSize=33.86mil|YSize=53.54mil|CornerRadius=8.47mil|HoleSize=0mil|Usage=FLASHONLY|Rotation=180.000|XOffset=0mil|YOffset=0mil|HoleType=Round|Shape=RoundedRectangle|*
%AMROUNDEDRECTD17*
21,1,0.03386,0.03661,0,0,180.0*
21,1,0.01693,0.05354,0,0,180.0*
1,1,0.01693,-0.00847,0.01831*
1,1,0.01693,0.00847,0.01831*
1,1,0.01693,0.00847,-0.01831*
1,1,0.01693,-0.00847,-0.01831*
%
%ADD17ROUNDEDRECTD17*%
%ADD18R,0.06693X0.03150*%
%ADD19R,0.04921X0.06693*%
%ADD20R,0.04016X0.05787*%
%ADD21R,0.04724X0.04724*%
%ADD22R,0.07874X0.08583*%
%ADD23R,0.04528X0.01181*%
%ADD24R,0.04528X0.02362*%
D14*
X182043Y145000D02*
D03*
X174957D02*
D03*
X175457Y128000D02*
D03*
X182543D02*
D03*
D15*
X199267Y135677D02*
D03*
X201459Y137869D02*
D03*
X203721Y140132D02*
D03*
X205913Y142324D02*
D03*
X208176Y144587D02*
D03*
X210368Y146779D02*
D03*
X212631Y149041D02*
D03*
X214823Y151233D02*
D03*
X237733Y128323D02*
D03*
X235541Y126131D02*
D03*
X233278Y123868D02*
D03*
X231086Y121676D02*
D03*
X228824Y119413D02*
D03*
X226632Y117221D02*
D03*
X224369Y114959D02*
D03*
X222177Y112767D02*
D03*
D16*
Y151233D02*
D03*
X224369Y149041D02*
D03*
X226632Y146779D02*
D03*
X228824Y144587D02*
D03*
X231086Y142324D02*
D03*
X233278Y140132D02*
D03*
X235541Y137869D02*
D03*
X237733Y135677D02*
D03*
X214823Y112767D02*
D03*
X212631Y114959D02*
D03*
X210368Y117221D02*
D03*
X208176Y119413D02*
D03*
X205913Y121676D02*
D03*
X203721Y123868D02*
D03*
X201459Y126131D02*
D03*
X199267Y128323D02*
D03*
D17*
X182500Y135500D02*
D03*
X174823D02*
D03*
D18*
X166000Y126307D02*
D03*
Y139693D02*
D03*
D19*
X147500Y133815D02*
D03*
Y123185D02*
D03*
D20*
X145850Y141500D02*
D03*
X152150D02*
D03*
D21*
X175366Y119500D02*
D03*
X183634D02*
D03*
D22*
X122028Y111500D02*
D03*
Y151736D02*
D03*
X137500Y111500D02*
D03*
Y151736D02*
D03*
D23*
X139764Y130634D02*
D03*
Y132602D02*
D03*
Y128665D02*
D03*
Y134571D02*
D03*
Y126697D02*
D03*
Y136539D02*
D03*
Y124728D02*
D03*
Y138508D02*
D03*
D24*
Y119020D02*
D03*
Y122169D02*
D03*
Y141067D02*
D03*
Y144217D02*
D03*
M02*
