G04*
G04 #@! TF.GenerationSoftware,Altium Limited,Altium Designer,20.1.10 (176)*
G04*
G04 Layer_Physical_Order=1*
G04 Layer_Color=255*
%FSLAX25Y25*%
%MOIN*%
G70*
G04*
G04 #@! TF.SameCoordinates,773EA745-F9F6-403D-839C-D9EBE2D74CCE*
G04*
G04*
G04 #@! TF.FilePolarity,Positive*
G04*
G01*
G75*
%ADD10C,0.01181*%
%ADD12C,0.01575*%
%ADD14R,0.04331X0.05709*%
G04:AMPARAMS|DCode=15|XSize=20mil|YSize=58mil|CornerRadius=0mil|HoleSize=0mil|Usage=FLASHONLY|Rotation=225.000|XOffset=0mil|YOffset=0mil|HoleType=Round|Shape=Rectangle|*
%AMROTATEDRECTD15*
4,1,4,-0.01344,0.02758,0.02758,-0.01344,0.01344,-0.02758,-0.02758,0.01344,-0.01344,0.02758,0.0*
%
%ADD15ROTATEDRECTD15*%

G04:AMPARAMS|DCode=16|XSize=20mil|YSize=58mil|CornerRadius=0mil|HoleSize=0mil|Usage=FLASHONLY|Rotation=315.000|XOffset=0mil|YOffset=0mil|HoleType=Round|Shape=Rectangle|*
%AMROTATEDRECTD16*
4,1,4,-0.02758,-0.01344,0.01344,0.02758,0.02758,0.01344,-0.01344,-0.02758,-0.02758,-0.01344,0.0*
%
%ADD16ROTATEDRECTD16*%

G04:AMPARAMS|DCode=17|XSize=33.86mil|YSize=53.54mil|CornerRadius=8.47mil|HoleSize=0mil|Usage=FLASHONLY|Rotation=180.000|XOffset=0mil|YOffset=0mil|HoleType=Round|Shape=RoundedRectangle|*
%AMROUNDEDRECTD17*
21,1,0.03386,0.03661,0,0,180.0*
21,1,0.01693,0.05354,0,0,180.0*
1,1,0.01693,-0.00847,0.01831*
1,1,0.01693,0.00847,0.01831*
1,1,0.01693,0.00847,-0.01831*
1,1,0.01693,-0.00847,-0.01831*
%
%ADD17ROUNDEDRECTD17*%
%ADD18R,0.06693X0.03150*%
%ADD19R,0.04921X0.06693*%
%ADD20R,0.04016X0.05787*%
%ADD21R,0.04724X0.04724*%
%ADD22R,0.07874X0.08583*%
%ADD23R,0.04528X0.01181*%
%ADD24R,0.04528X0.02362*%
%ADD40C,0.02362*%
%ADD41C,0.03937*%
%ADD42C,0.06496*%
%ADD43R,0.06024X0.06024*%
%ADD44C,0.06024*%
%ADD45C,0.02362*%
G36*
X183007Y154507D02*
X183462Y154202D01*
X184000Y154095D01*
X185093D01*
X185300Y153595D01*
X185006Y153302D01*
X184702Y152846D01*
X184595Y152308D01*
Y148642D01*
X179091D01*
Y142082D01*
X169756D01*
X169620Y142055D01*
X161866D01*
Y141905D01*
X158500D01*
X157962Y141798D01*
X157507Y141493D01*
X151006Y134994D01*
X150702Y134538D01*
X150595Y134000D01*
Y127319D01*
X144252D01*
Y124176D01*
X142815D01*
Y127304D01*
X143136Y127367D01*
X143592Y127672D01*
X144399Y128479D01*
X144703Y128935D01*
X144810Y129473D01*
Y131795D01*
X144703Y132333D01*
X144399Y132789D01*
X143592Y133596D01*
X143136Y133900D01*
X142815Y133964D01*
Y137418D01*
X143055Y137819D01*
X148645D01*
Y145181D01*
X143055D01*
Y143436D01*
X142815Y143035D01*
X139958D01*
X139764Y143074D01*
X139570Y143035D01*
X136713D01*
X136424Y143416D01*
X136354Y143768D01*
X135919Y144419D01*
X135268Y144854D01*
X134500Y145007D01*
X134495Y145006D01*
X134145Y145239D01*
X133531Y145362D01*
X133531Y145362D01*
X123858D01*
X123395Y145269D01*
X123268Y145354D01*
X122500Y145507D01*
X121732Y145354D01*
X121081Y144919D01*
X120646Y144268D01*
X120493Y143500D01*
X120646Y142732D01*
X121081Y142081D01*
X121732Y141646D01*
X122500Y141493D01*
X123268Y141646D01*
X123468Y141779D01*
X123787Y141391D01*
X123365Y140969D01*
X123017Y140448D01*
X122894Y139833D01*
X122894Y139833D01*
Y125493D01*
X122894Y125493D01*
X123017Y124879D01*
X123365Y124358D01*
X126688Y121034D01*
X126688Y121034D01*
X127209Y120686D01*
X127824Y120564D01*
X127824Y120564D01*
X136713D01*
Y120201D01*
X139570D01*
X139764Y120162D01*
X144252D01*
Y119051D01*
X150748D01*
Y119880D01*
X151158Y120155D01*
X151248Y120142D01*
X152000Y119993D01*
X152768Y120146D01*
X153419Y120581D01*
X153854Y121232D01*
X154007Y122000D01*
X153854Y122768D01*
X153419Y123419D01*
X153405Y123429D01*
Y133115D01*
X153625Y133288D01*
X153797Y133269D01*
X154210Y133136D01*
X154581Y132581D01*
X155232Y132146D01*
X156000Y131993D01*
X156527Y132098D01*
X156889Y132026D01*
X170133D01*
X172477Y129682D01*
Y129575D01*
X172504Y129439D01*
Y124358D01*
X178409D01*
Y131642D01*
X176407D01*
X176314Y132095D01*
X176324Y132142D01*
X176847Y132491D01*
X177208Y133032D01*
X177335Y133669D01*
Y137331D01*
X177208Y137968D01*
X176847Y138509D01*
X176453Y138772D01*
X176604Y139272D01*
X180718D01*
X180870Y138772D01*
X180476Y138509D01*
X180114Y137968D01*
X179988Y137331D01*
Y133669D01*
X180114Y133032D01*
X180476Y132491D01*
X180999Y132142D01*
X181009Y132095D01*
X180916Y131642D01*
X179591D01*
Y124358D01*
X185496D01*
Y131642D01*
X184084D01*
X183991Y132095D01*
X184001Y132142D01*
X184524Y132491D01*
X184886Y133032D01*
X185012Y133669D01*
Y134497D01*
X185093Y134606D01*
X185402Y134573D01*
X185643Y134402D01*
X185948Y133947D01*
X187595Y132299D01*
Y117434D01*
X184066Y113905D01*
X179932D01*
X179395Y113798D01*
X178939Y113494D01*
X177850Y112405D01*
X165000D01*
X164462Y112298D01*
X164006Y111994D01*
X159044Y107031D01*
X122626D01*
X122470Y107000D01*
X115000D01*
Y156000D01*
X141698D01*
X142016Y155614D01*
X141993Y155500D01*
X142146Y154732D01*
X142581Y154081D01*
X143232Y153646D01*
X144000Y153493D01*
X144513Y153595D01*
X163121D01*
X164095Y152621D01*
Y148500D01*
X164202Y147962D01*
X164506Y147506D01*
X165996Y146017D01*
X165993Y146000D01*
X166146Y145232D01*
X166581Y144581D01*
X167232Y144146D01*
X168000Y143993D01*
X168768Y144146D01*
X169419Y144581D01*
X169854Y145232D01*
X170007Y146000D01*
X169854Y146768D01*
X169419Y147419D01*
X168768Y147854D01*
X168000Y148007D01*
X167983Y148004D01*
X166905Y149082D01*
Y153203D01*
X166798Y153740D01*
X166493Y154196D01*
X165190Y155500D01*
X165397Y156000D01*
X170036D01*
Y151000D01*
X170143Y150462D01*
X170448Y150006D01*
X171448Y149006D01*
X171903Y148702D01*
X172441Y148595D01*
X174071D01*
X174081Y148581D01*
X174732Y148146D01*
X175500Y147993D01*
X176268Y148146D01*
X176919Y148581D01*
X177354Y149232D01*
X177507Y150000D01*
X177354Y150768D01*
X176919Y151419D01*
X176268Y151854D01*
X175500Y152007D01*
X174732Y151854D01*
X174081Y151419D01*
X174071Y151405D01*
X173023D01*
X172846Y151582D01*
Y156000D01*
X181513D01*
X183007Y154507D01*
D02*
G37*
G36*
X126702Y131293D02*
X127006Y130837D01*
X130172Y127672D01*
X130628Y127367D01*
X131165Y127260D01*
X136713D01*
Y123775D01*
X128489D01*
X126106Y126158D01*
Y131728D01*
X126606Y131777D01*
X126702Y131293D01*
D02*
G37*
G36*
X206332Y125168D02*
X206320Y124611D01*
X202042Y120333D01*
X204570Y117805D01*
X204890Y118125D01*
X205118Y118080D01*
X205425Y118141D01*
X205685Y118315D01*
X209435Y122065D01*
X210828Y120672D01*
X207078Y116922D01*
X206904Y116662D01*
X206842Y116355D01*
X206864Y116245D01*
X206497Y115878D01*
X208760Y113615D01*
X210470Y111905D01*
X210263Y111405D01*
X208429D01*
X208419Y111419D01*
X207768Y111854D01*
X207000Y112007D01*
X206232Y111854D01*
X205581Y111419D01*
X205146Y110768D01*
X204993Y110000D01*
X205146Y109232D01*
X205581Y108581D01*
X206232Y108146D01*
X207000Y107993D01*
X207768Y108146D01*
X208419Y108581D01*
X208429Y108595D01*
X212000D01*
X212501Y108695D01*
X212530Y108672D01*
X212665Y108152D01*
X211918Y107405D01*
X190599D01*
X190392Y107905D01*
X195993Y113506D01*
X196298Y113962D01*
X196405Y114500D01*
Y119090D01*
X199845Y122530D01*
X200115Y122260D01*
X204678Y126822D01*
X206332Y125168D01*
D02*
G37*
G36*
X216536Y126477D02*
Y121536D01*
X209500Y114500D01*
X207645Y116355D01*
X212048Y120757D01*
X209520Y123285D01*
X205118Y118883D01*
X203500Y120500D01*
X207500Y124500D01*
X207190Y124810D01*
X207593Y125212D01*
X205065Y127740D01*
X203777Y129027D01*
X203968Y129427D01*
X204016Y129496D01*
X204768Y129646D01*
X205419Y130081D01*
X205854Y130732D01*
X206007Y131500D01*
X206004Y131517D01*
X208750Y134263D01*
X216536Y126477D01*
D02*
G37*
G36*
X252512Y163124D02*
X252430Y162500D01*
X252568Y161446D01*
X252975Y160465D01*
X253622Y159622D01*
X254465Y158975D01*
X255447Y158568D01*
X256500Y158430D01*
X257554Y158568D01*
X258535Y158975D01*
X259000Y159332D01*
X259500Y159085D01*
Y149462D01*
X259000Y149195D01*
X258846Y149298D01*
X258308Y149405D01*
X235383D01*
X233137Y151650D01*
X234993Y153507D01*
X235298Y153962D01*
X235405Y154500D01*
Y158070D01*
X235905Y158508D01*
X236500Y158430D01*
X237554Y158568D01*
X238535Y158975D01*
X239378Y159622D01*
X240025Y160465D01*
X240432Y161446D01*
X240570Y162500D01*
X240488Y163124D01*
X240818Y163500D01*
X252182D01*
X252512Y163124D01*
D02*
G37*
G36*
X232496Y163000D02*
X232430Y162500D01*
X232500Y161967D01*
Y154987D01*
X231052Y153539D01*
X229000Y152000D01*
X228202Y152679D01*
X228099Y153197D01*
X227794Y153653D01*
X220500Y160947D01*
Y161966D01*
X220570Y162500D01*
X220504Y163000D01*
X220544Y163500D01*
X232456D01*
X232496Y163000D01*
D02*
G37*
G36*
X233807Y147006D02*
X234263Y146702D01*
X234801Y146595D01*
X257595D01*
Y145133D01*
X257219Y144803D01*
X257000Y144832D01*
X256008Y144701D01*
X255084Y144319D01*
X254290Y143710D01*
X253681Y142916D01*
X253299Y141992D01*
X253168Y141000D01*
X253299Y140008D01*
X253681Y139084D01*
X254290Y138290D01*
X255084Y137681D01*
X256008Y137299D01*
X257000Y137168D01*
X257992Y137299D01*
X258916Y137681D01*
X259052Y137785D01*
X259500Y137564D01*
Y134436D01*
X259052Y134215D01*
X258916Y134319D01*
X257992Y134701D01*
X257000Y134832D01*
X256008Y134701D01*
X255497Y134490D01*
X252993Y136994D01*
X252538Y137298D01*
X252000Y137405D01*
X245382D01*
X245362Y137412D01*
X245169Y137567D01*
X245167Y137569D01*
X245058Y137689D01*
X245002Y137905D01*
X245004Y137912D01*
Y138062D01*
X245000Y138079D01*
Y138333D01*
X244995Y138358D01*
Y138410D01*
X244985Y138462D01*
Y138489D01*
X244980Y138515D01*
X244973Y138530D01*
X244968Y138618D01*
X244944Y138665D01*
X244934Y138717D01*
X244885Y138791D01*
X244881Y138806D01*
X244869Y138830D01*
X244852Y138851D01*
X244829Y138899D01*
X244797Y138940D01*
X244786Y138963D01*
X244383Y139489D01*
X244383Y139489D01*
X244383Y139489D01*
X244081Y140218D01*
X243978Y141000D01*
X244081Y141782D01*
X244383Y142511D01*
X244383Y142511D01*
X244685Y142906D01*
X244725Y142986D01*
X244777Y143058D01*
X244794Y143125D01*
X244824Y143187D01*
X244830Y143276D01*
X244851Y143363D01*
X244840Y143430D01*
X244844Y143499D01*
X244816Y143584D01*
X244802Y143672D01*
X244654Y144072D01*
X244640Y144095D01*
X244634Y144122D01*
X244559Y144228D01*
X244491Y144339D01*
X244469Y144355D01*
X244453Y144378D01*
X244352Y144473D01*
X244286Y144515D01*
X244229Y144569D01*
X244223Y144573D01*
X244158Y144598D01*
X244101Y144636D01*
X244090Y144638D01*
X244087Y144640D01*
X244045Y144647D01*
X244013Y144653D01*
X243930Y144685D01*
X243861Y144684D01*
X243793Y144697D01*
X235384D01*
X235077Y144636D01*
X234816Y144462D01*
X234213Y144412D01*
X232430Y146195D01*
X232118Y145882D01*
X230500Y147500D01*
Y148119D01*
X230503Y148122D01*
X230500Y148125D01*
Y149607D01*
X231000Y149814D01*
X233807Y147006D01*
D02*
G37*
G36*
X243800Y143890D02*
X243901Y143795D01*
X244048Y143394D01*
X243746Y143000D01*
X243746Y143000D01*
X243681Y142916D01*
X243641Y142818D01*
X243641Y142818D01*
X243299Y141992D01*
X243168Y141000D01*
X243299Y140008D01*
X243641Y139182D01*
X243641Y139182D01*
X243681Y139084D01*
X243746Y139000D01*
X243746Y139000D01*
X244149Y138475D01*
X244161Y138451D01*
X244192Y138410D01*
Y138358D01*
X244197Y138333D01*
Y138079D01*
X244201Y138062D01*
Y137912D01*
X244202Y137905D01*
X244201Y137898D01*
X243892Y137466D01*
X243888Y137462D01*
X243777Y137405D01*
X241220D01*
X239077Y139548D01*
X236933Y137405D01*
X236595D01*
X235000Y139000D01*
X236500Y140500D01*
X236337Y140663D01*
X237150Y141475D01*
X235193Y143432D01*
X235384Y143894D01*
X243793D01*
X243800Y143890D01*
D02*
G37*
G36*
X239599Y135006D02*
X240055Y134702D01*
X240592Y134595D01*
X244623D01*
X244793Y134095D01*
X244290Y133710D01*
X243681Y132916D01*
X243299Y131992D01*
X243168Y131000D01*
X243299Y130008D01*
X243681Y129084D01*
X244290Y128290D01*
X245084Y127681D01*
X246008Y127299D01*
X247000Y127168D01*
X247992Y127299D01*
X248916Y127681D01*
X249710Y128290D01*
X250319Y129084D01*
X250701Y130008D01*
X250832Y131000D01*
X250701Y131992D01*
X250319Y132916D01*
X249710Y133710D01*
X249207Y134095D01*
X249377Y134595D01*
X251418D01*
X253510Y132503D01*
X253299Y131992D01*
X253168Y131000D01*
X253299Y130008D01*
X253681Y129084D01*
X254290Y128290D01*
X255084Y127681D01*
X256008Y127299D01*
X257000Y127168D01*
X257992Y127299D01*
X258916Y127681D01*
X259052Y127785D01*
X259500Y127564D01*
Y124799D01*
X253201D01*
Y117201D01*
X257595D01*
Y111500D01*
X256717D01*
X256271Y111685D01*
X255551Y111780D01*
X240500D01*
X239781Y111685D01*
X239334Y111500D01*
X238559D01*
Y118072D01*
X242504Y122017D01*
X242809Y122473D01*
X242916Y123011D01*
Y123989D01*
X242809Y124527D01*
X242504Y124983D01*
X241056Y126431D01*
X241605Y126979D01*
X237000Y131584D01*
Y132245D01*
X237267Y132645D01*
X238727Y134104D01*
X238804Y134220D01*
X239595Y135011D01*
X239599Y135006D01*
D02*
G37*
%LPC*%
G36*
X120000Y141007D02*
X119232Y140854D01*
X118581Y140419D01*
X118146Y139768D01*
X117993Y139000D01*
X118146Y138232D01*
X118394Y137860D01*
Y128640D01*
X118146Y128268D01*
X117993Y127500D01*
X118146Y126732D01*
X118581Y126081D01*
X119232Y125646D01*
X120000Y125493D01*
X120768Y125646D01*
X121419Y126081D01*
X121854Y126732D01*
X122007Y127500D01*
X121854Y128268D01*
X121606Y128640D01*
Y137860D01*
X121854Y138232D01*
X122007Y139000D01*
X121854Y139768D01*
X121419Y140419D01*
X120768Y140854D01*
X120000Y141007D01*
D02*
G37*
G36*
X178516Y122650D02*
X172216D01*
Y121106D01*
X170062D01*
X169448Y120983D01*
X168927Y120635D01*
X168927Y120635D01*
X167515Y119224D01*
X167167Y118703D01*
X167115Y118442D01*
X167081Y118419D01*
X166646Y117768D01*
X166493Y117000D01*
X166646Y116232D01*
X167081Y115581D01*
X167732Y115146D01*
X168500Y114993D01*
X169268Y115146D01*
X169919Y115581D01*
X170354Y116232D01*
X170507Y117000D01*
X170402Y117529D01*
X170729Y117894D01*
X172216D01*
Y116350D01*
X178516D01*
Y122650D01*
D02*
G37*
%LPD*%
D10*
X129736Y137835D02*
X133000Y134571D01*
X128165Y137835D02*
X129736D01*
X128000Y138000D02*
X128165Y137835D01*
X133000Y134571D02*
X134000D01*
X186500Y106000D02*
X195000Y114500D01*
Y119672D02*
X201459Y126131D01*
X195000Y114500D02*
Y119672D01*
X186216Y108500D02*
X193000Y115284D01*
Y122056D01*
X199267Y128323D01*
X185432Y110500D02*
X191000Y116068D01*
Y123419D02*
X200483Y132903D01*
X191000Y116068D02*
Y123419D01*
X157000Y101000D02*
X158017Y102017D01*
X166250Y108250D02*
X178466D01*
X158017Y102017D02*
X160017D01*
X166250Y108250D01*
X178466D02*
X180716Y110500D01*
X173323Y105823D02*
X178823D01*
X170057Y102618D02*
X170118D01*
X173323Y105823D01*
X168438Y101000D02*
X170057Y102618D01*
X167000Y101000D02*
X168438D01*
X178432Y111000D02*
X179932Y112500D01*
X184648D02*
X189000Y116852D01*
X179932Y112500D02*
X184648D01*
X180716Y110500D02*
X185432D01*
X181500Y108500D02*
X186216D01*
X178823Y105823D02*
X181500Y108500D01*
X177500Y101000D02*
X182500Y106000D01*
X186500D01*
X189000Y116852D02*
Y132881D01*
X165000Y111000D02*
X178432D01*
X186941Y134940D02*
X189000Y132881D01*
X188017Y103455D02*
Y104017D01*
X190000Y106000D02*
X212500D01*
X188017Y104017D02*
X190000Y106000D01*
X187562Y103000D02*
X188017Y103455D01*
X186941Y134940D02*
Y139526D01*
X187969Y140554D01*
X159626Y105626D02*
X165000Y111000D01*
X122626Y105626D02*
X159626D01*
X133000Y131326D02*
Y133571D01*
X133692Y130634D02*
X139764D01*
X133000Y131326D02*
X133692Y130634D01*
X133000Y133571D02*
X134000Y134571D01*
X128000Y131831D02*
X131165Y128665D01*
X128000Y131831D02*
Y134000D01*
X156889Y133431D02*
X170715D01*
X173882Y130264D01*
Y129575D02*
X175957Y127500D01*
X173882Y129575D02*
Y130264D01*
X152000Y134000D02*
X158500Y140500D01*
X165193D02*
X166000Y139693D01*
X158500Y140500D02*
X165193D01*
X165500Y148500D02*
Y153203D01*
Y148500D02*
X168000Y146000D01*
X197500Y151000D02*
X204500Y144000D01*
X169756Y140677D02*
X185308D01*
X186000Y141369D01*
X152000Y122000D02*
Y134000D01*
X156000D02*
X156320D01*
X156889Y133431D01*
X171441Y151000D02*
Y156741D01*
X172441Y150000D02*
X175500D01*
X171441Y151000D02*
X172441Y150000D01*
X170308Y157874D02*
X171441Y156741D01*
X145245Y157874D02*
X170308D01*
X163703Y155000D02*
X165500Y153203D01*
X144500Y155000D02*
X163703D01*
X144000Y155500D02*
X144500Y155000D01*
X138416Y157874D02*
X138601Y158059D01*
X121126Y157874D02*
X138416D01*
X145060Y158059D02*
X145245Y157874D01*
X138601Y158059D02*
X145060D01*
X187969Y140554D02*
Y149169D01*
X189500Y136000D02*
Y139301D01*
X186000Y141369D02*
Y152308D01*
X189500Y139301D02*
X189937Y139738D01*
Y145733D01*
X186000Y152308D02*
X186692Y153000D01*
X188660Y149861D02*
X189639D01*
X189937Y145733D02*
X190629Y146425D01*
X192903D01*
X189639Y149861D02*
X191000Y148500D01*
X186692Y153000D02*
X189284D01*
X187969Y149169D02*
X188660Y149861D01*
X191000Y148500D02*
X195218D01*
X191284Y151000D02*
X197500D01*
X189284Y153000D02*
X191284Y151000D01*
X190000Y155500D02*
X192500Y153000D01*
X198648D01*
X184000Y155500D02*
X190000D01*
X195492Y148226D02*
X196274D01*
X195218Y148500D02*
X195492Y148226D01*
X192903Y146425D02*
X201459Y137869D01*
X190626Y157874D02*
X193500Y155000D01*
X200000D01*
X196274Y148226D02*
X196500Y148000D01*
X194500Y157500D02*
X200603D01*
X190368Y161632D02*
X194500Y157500D01*
X228000Y139237D02*
X231086Y142324D01*
X228000Y134000D02*
Y139237D01*
X224489Y124489D02*
X231406Y131406D01*
X209680Y139299D02*
X215790Y145409D01*
X223511Y124489D02*
X224489D01*
X209680Y138320D02*
X223511Y124489D01*
X209680Y138320D02*
Y139299D01*
X217941Y120269D02*
Y127059D01*
X208261Y135761D02*
X209239D01*
X217941Y127059D01*
X204000Y131500D02*
X208261Y135761D01*
X233374Y130590D02*
Y130590D01*
X237733Y135098D02*
Y135677D01*
X235975Y133339D02*
X237733Y135098D01*
X235975Y133191D02*
Y133339D01*
X233374Y130590D02*
X235975Y133191D01*
X223284Y120500D02*
X233374Y130590D01*
X231523Y137797D02*
X233278Y139553D01*
X231523Y137642D02*
Y137797D01*
X220500Y120500D02*
X223284D01*
X231406Y137525D02*
X231523Y137642D01*
X233278Y139553D02*
Y140132D01*
X231406Y131406D02*
Y137525D01*
X216000Y145500D02*
X216680D01*
X214000Y140000D02*
X216941Y142941D01*
X216590Y145409D02*
X216680Y145500D01*
X216941Y142941D02*
X222794D01*
X226632Y146779D01*
X231640Y151161D02*
Y152140D01*
X234000Y154500D02*
Y159151D01*
X231640Y151161D02*
X234801Y148000D01*
X231640Y152140D02*
X234000Y154500D01*
Y159151D02*
X236500Y161651D01*
Y162500D01*
X234801Y148000D02*
X258308D01*
X257000Y142113D02*
X259000Y144113D01*
X257000Y141000D02*
Y142113D01*
X259000Y144113D02*
Y147308D01*
X258308Y148000D02*
X259000Y147308D01*
X212631Y114959D02*
X217941Y120269D01*
X259000Y104349D02*
Y119000D01*
X257000Y102349D02*
X259000Y104349D01*
X257000Y121000D02*
X259000Y119000D01*
X235222Y119506D02*
Y120904D01*
X235000Y119284D02*
X235222Y119506D01*
X235000Y104438D02*
Y119284D01*
Y121126D02*
X235222Y120904D01*
X235000Y121126D02*
Y121568D01*
X241511Y123011D02*
Y123989D01*
X235000Y104438D02*
X237000Y102438D01*
X237733Y127767D02*
X241511Y123989D01*
X237154Y106318D02*
X237845Y105626D01*
X237154Y118654D02*
X241511Y123011D01*
X237845Y105626D02*
X249374D01*
X237154Y106318D02*
Y118654D01*
X233278Y123289D02*
X235000Y121568D01*
X237000Y101000D02*
Y102438D01*
X233278Y123289D02*
Y123868D01*
X229095Y112094D02*
Y114362D01*
X228824Y118834D02*
X231063Y116595D01*
X228017Y104517D02*
X233032Y109531D01*
X225500Y108500D02*
X229095Y112094D01*
X226632Y116825D02*
Y117221D01*
X231063Y111063D02*
Y116595D01*
X228824Y118834D02*
Y119413D01*
X233032Y109531D02*
Y119152D01*
X231086Y121097D02*
X233032Y119152D01*
X226632Y116825D02*
X229095Y114362D01*
X226000Y106000D02*
X231063Y111063D01*
X231086Y121097D02*
Y121676D01*
X235541Y126131D02*
X237672Y124000D01*
X237500D02*
X237672D01*
X224369Y149469D02*
X226800Y151900D01*
Y152660D01*
X216960Y162500D02*
X226800Y152660D01*
X224369Y149041D02*
Y149469D01*
X216500Y162500D02*
X216960D01*
X226632Y146779D02*
X226632D01*
X215790Y145409D02*
X216590D01*
X249374Y105626D02*
X253132Y101868D01*
X219305Y106375D02*
X219375D01*
X221500Y108500D02*
X225500D01*
X219375Y106375D02*
X221500Y108500D01*
X227000Y101000D02*
X228017Y102017D01*
Y104517D01*
X223500Y106000D02*
X226000D01*
X217000Y101000D02*
X218438D01*
X220057Y102618D01*
X220118D01*
X223500Y106000D01*
X201103Y150545D02*
X202455D01*
X208176Y144587D02*
Y144824D01*
X202455Y150545D02*
X208176Y144824D01*
X204084Y153063D02*
X210368Y146779D01*
X201937Y153063D02*
X204084D01*
X198648Y153000D02*
X201103Y150545D01*
X177000Y101000D02*
X177500D01*
X199267Y135677D02*
X200610Y134334D01*
Y133754D02*
Y134334D01*
X200483Y133628D02*
X200610Y133754D01*
X200483Y132903D02*
Y133628D01*
X212500Y106000D02*
X220432Y113932D01*
X221011D01*
X222177Y112767D01*
X218500Y117000D02*
X221749D01*
X223790Y114959D01*
X224369D01*
X184584Y157874D02*
X190626D01*
X174500Y157500D02*
X182000D01*
X166500Y162500D02*
X167368Y161632D01*
X170368D01*
X174500Y157500D01*
X182000D02*
X184000Y155500D01*
X180826Y161632D02*
X184584Y157874D01*
X200000Y155000D02*
X201937Y153063D01*
X203000Y155103D02*
X206569D01*
X204000Y157500D02*
X208556D01*
X197517Y161483D02*
X200017D01*
X204000Y157500D01*
X200603D02*
X203000Y155103D01*
X177368Y161632D02*
X180826D01*
X187368D02*
X190368D01*
X206569Y155103D02*
X212631Y149041D01*
X212631D01*
X197000Y162000D02*
X197517Y161483D01*
X208556Y157500D02*
X214823Y151233D01*
X210017Y161483D02*
X214000Y157500D01*
X218500D02*
X223182Y152818D01*
X214000Y157500D02*
X218500D01*
X206500Y162500D02*
X207517Y161483D01*
X210017D01*
X222177Y151233D02*
X223182Y152239D01*
Y152818D01*
X176500Y162500D02*
X177368Y161632D01*
X186500Y162500D02*
X187368Y161632D01*
X252000Y136000D02*
X257000Y131000D01*
X239035Y136978D02*
X239614D01*
X240592Y136000D01*
X252000D01*
X237733Y127767D02*
Y128323D01*
X256132Y101868D02*
X257000Y101000D01*
X253132Y101868D02*
X256132D01*
X257000Y101000D02*
Y102349D01*
X207000Y110000D02*
X212000D01*
X131165Y128665D02*
X139764D01*
X117000Y162000D02*
X121126Y157874D01*
X118000Y101000D02*
X122626Y105626D01*
X139764Y132602D02*
X142598D01*
X143405Y131795D01*
Y129473D02*
Y131795D01*
X142598Y128665D02*
X143405Y129473D01*
X141437Y128665D02*
X142598D01*
X141437Y128665D02*
X141437Y128665D01*
X139764Y128665D02*
X141437D01*
X134000Y134571D02*
X139764D01*
X117000Y101000D02*
X118000D01*
X199267Y128323D02*
Y128323D01*
X196500Y147680D02*
X197000Y147180D01*
Y146853D02*
Y147180D01*
Y146853D02*
X203721Y140132D01*
X212000Y110000D02*
X214767Y112767D01*
X214823D01*
D12*
X231500Y147500D02*
X231713D01*
X168500Y117000D02*
X168651Y117151D01*
Y118088D01*
X127824Y122169D02*
X139764D01*
X120000Y127500D02*
Y139000D01*
X124500Y125493D02*
X127824Y122169D01*
X125423Y140756D02*
X129141D01*
X124500Y125493D02*
Y139833D01*
X125423Y140756D01*
X129897Y140000D02*
X136174D01*
X129141Y140756D02*
X129897Y140000D01*
X136174D02*
X136848Y140673D01*
X137365D01*
X137365Y140673D01*
X139370D01*
X139764Y141067D01*
X123858Y143756D02*
X133531D01*
X123753Y143651D02*
X123858Y143756D01*
X122500Y143500D02*
X122651Y143651D01*
X123753D01*
X133531Y143756D02*
X134287Y143000D01*
X134500D01*
X170062Y119500D02*
X175366D01*
X168651Y118088D02*
X170062Y119500D01*
X139764Y141067D02*
X145417D01*
X146907Y122592D02*
X147500Y123185D01*
X231713Y147500D02*
X232557Y146656D01*
X233082D01*
X234239Y145500D01*
X246000D01*
D14*
X182043Y145000D02*
D03*
X174957D02*
D03*
X175457Y128000D02*
D03*
X182543D02*
D03*
D15*
X199267Y135677D02*
D03*
X201459Y137869D02*
D03*
X203721Y140132D02*
D03*
X205913Y142324D02*
D03*
X208176Y144587D02*
D03*
X210368Y146779D02*
D03*
X212631Y149041D02*
D03*
X214823Y151233D02*
D03*
X237733Y128323D02*
D03*
X235541Y126131D02*
D03*
X233278Y123868D02*
D03*
X231086Y121676D02*
D03*
X228824Y119413D02*
D03*
X226632Y117221D02*
D03*
X224369Y114959D02*
D03*
X222177Y112767D02*
D03*
D16*
Y151233D02*
D03*
X224369Y149041D02*
D03*
X226632Y146779D02*
D03*
X228824Y144587D02*
D03*
X231086Y142324D02*
D03*
X233278Y140132D02*
D03*
X235541Y137869D02*
D03*
X237733Y135677D02*
D03*
X214823Y112767D02*
D03*
X212631Y114959D02*
D03*
X210368Y117221D02*
D03*
X208176Y119413D02*
D03*
X205913Y121676D02*
D03*
X203721Y123868D02*
D03*
X201459Y126131D02*
D03*
X199267Y128323D02*
D03*
D17*
X182500Y135500D02*
D03*
X174823D02*
D03*
D18*
X166000Y126307D02*
D03*
Y139693D02*
D03*
D19*
X147500Y133815D02*
D03*
Y123185D02*
D03*
D20*
X145850Y141500D02*
D03*
X152150D02*
D03*
D21*
X175366Y119500D02*
D03*
X183634D02*
D03*
D22*
X122028Y111500D02*
D03*
Y151736D02*
D03*
X137500Y111500D02*
D03*
Y151736D02*
D03*
D23*
X139764Y130634D02*
D03*
Y132602D02*
D03*
Y128665D02*
D03*
Y134571D02*
D03*
Y126697D02*
D03*
Y136539D02*
D03*
Y124728D02*
D03*
Y138508D02*
D03*
D24*
Y119020D02*
D03*
Y122169D02*
D03*
Y141067D02*
D03*
Y144217D02*
D03*
D40*
X174075Y146381D02*
X174957Y145500D01*
X139764Y122169D02*
X146484D01*
X146907Y122592D01*
D41*
X226500Y161808D02*
X229500Y158808D01*
X240500Y109000D02*
X255551D01*
X226500Y161808D02*
Y162500D01*
D42*
X256500D02*
D03*
X246500D02*
D03*
X236500D02*
D03*
X226500D02*
D03*
X216500D02*
D03*
X206500D02*
D03*
X196500D02*
D03*
X186500D02*
D03*
X176500D02*
D03*
X166500D02*
D03*
X156500D02*
D03*
X146500D02*
D03*
X136500D02*
D03*
X126500D02*
D03*
X116500D02*
D03*
X117000Y101000D02*
D03*
X127000D02*
D03*
X137000D02*
D03*
X147000D02*
D03*
X157000D02*
D03*
X167000D02*
D03*
X177000D02*
D03*
X187000D02*
D03*
X197000D02*
D03*
X207000D02*
D03*
X217000D02*
D03*
X227000D02*
D03*
X237000D02*
D03*
X247000D02*
D03*
X257000D02*
D03*
D43*
Y121000D02*
D03*
D44*
X247000D02*
D03*
X257000Y131000D02*
D03*
X247000D02*
D03*
X257000Y141000D02*
D03*
X247000D02*
D03*
D45*
X231500Y147500D02*
D03*
X168500Y117000D02*
D03*
X119500Y116500D02*
D03*
X120000Y139000D02*
D03*
Y127500D02*
D03*
X128000Y138000D02*
D03*
Y134000D02*
D03*
X168000Y146000D02*
D03*
X173500Y136000D02*
D03*
X152000Y122000D02*
D03*
X156000Y134000D02*
D03*
X134500Y143000D02*
D03*
X173000Y143500D02*
D03*
X175500Y150000D02*
D03*
X182000Y145500D02*
D03*
X161500Y147500D02*
D03*
X144000Y155500D02*
D03*
X146000Y140500D02*
D03*
X139764Y141067D02*
D03*
X126000Y155000D02*
D03*
X143000Y146500D02*
D03*
X133000Y154500D02*
D03*
X144500Y109500D02*
D03*
Y112000D02*
D03*
X122500Y143500D02*
D03*
X228000Y134000D02*
D03*
X216000Y145500D02*
D03*
X213500Y120000D02*
D03*
X182543Y129000D02*
D03*
X183339Y136000D02*
D03*
X229500Y154500D02*
D03*
X234000Y136500D02*
D03*
X242000Y139000D02*
D03*
X247000Y113500D02*
D03*
Y117000D02*
D03*
X227000Y142500D02*
D03*
X243500Y151500D02*
D03*
X255551Y109000D02*
D03*
X240500D02*
D03*
X200500Y119000D02*
D03*
X237500Y124000D02*
D03*
X214000Y140000D02*
D03*
X219305Y106375D02*
D03*
X204000Y131500D02*
D03*
X220500Y120500D02*
D03*
X218500Y117000D02*
D03*
X207000Y110000D02*
D03*
X189500Y136000D02*
D03*
X203250Y145000D02*
D03*
X196500Y148000D02*
D03*
M02*
