G04*
G04 #@! TF.GenerationSoftware,Altium Limited,Altium Designer,20.1.10 (176)*
G04*
G04 Layer_Color=16711935*
%FSLAX25Y25*%
%MOIN*%
G70*
G04*
G04 #@! TF.SameCoordinates,773EA745-F9F6-403D-839C-D9EBE2D74CCE*
G04*
G04*
G04 #@! TF.FilePolarity,Negative*
G04*
G01*
G75*
%ADD30R,0.05708X0.07480*%
%ADD31R,0.04803X0.06574*%
%ADD36C,0.07284*%
%ADD37R,0.06811X0.06811*%
%ADD38C,0.06811*%
%ADD39C,0.03150*%
%ADD54R,0.13385X0.07874*%
%ADD55R,0.04527X0.07874*%
%ADD56R,0.04409X0.06221*%
%ADD57R,0.10236X0.07874*%
%ADD58R,0.05315X0.06575*%
%ADD59R,0.06575X0.05315*%
%ADD60R,0.12402X0.08465*%
%ADD61R,0.02158X0.06287*%
D30*
X176500Y111685D02*
D03*
Y122315D02*
D03*
X184000Y111685D02*
D03*
Y122315D02*
D03*
D31*
X156200Y147000D02*
D03*
X162500D02*
D03*
X209350Y153000D02*
D03*
X215650D02*
D03*
X229650D02*
D03*
X223350D02*
D03*
X133350Y109000D02*
D03*
X139650D02*
D03*
D36*
X256500Y162500D02*
D03*
X246500D02*
D03*
X236500D02*
D03*
X226500D02*
D03*
X216500D02*
D03*
X206500D02*
D03*
X196500D02*
D03*
X186500D02*
D03*
X176500D02*
D03*
X166500D02*
D03*
X156500D02*
D03*
X146500D02*
D03*
X136500D02*
D03*
X126500D02*
D03*
X116500D02*
D03*
X117000Y101000D02*
D03*
X127000D02*
D03*
X137000D02*
D03*
X147000D02*
D03*
X157000D02*
D03*
X167000D02*
D03*
X177000D02*
D03*
X187000D02*
D03*
X197000D02*
D03*
X207000D02*
D03*
X217000D02*
D03*
X227000D02*
D03*
X237000D02*
D03*
X247000D02*
D03*
X257000D02*
D03*
D37*
Y121000D02*
D03*
D38*
X247000D02*
D03*
X257000Y131000D02*
D03*
X247000D02*
D03*
X257000Y141000D02*
D03*
X247000D02*
D03*
D39*
X231500Y147500D02*
D03*
X168500Y117000D02*
D03*
X119500Y116500D02*
D03*
X120000Y139000D02*
D03*
Y127500D02*
D03*
X128000Y138000D02*
D03*
Y134000D02*
D03*
X168000Y146000D02*
D03*
X173500Y136000D02*
D03*
X152000Y122000D02*
D03*
X156000Y134000D02*
D03*
X134500Y143000D02*
D03*
X173000Y143500D02*
D03*
X175500Y150000D02*
D03*
X182000Y145500D02*
D03*
X161500Y147500D02*
D03*
X144000Y155500D02*
D03*
X146000Y140500D02*
D03*
X139764Y141067D02*
D03*
X126000Y155000D02*
D03*
X143000Y146500D02*
D03*
X133000Y154500D02*
D03*
X144500Y109500D02*
D03*
Y112000D02*
D03*
X122500Y143500D02*
D03*
X228000Y134000D02*
D03*
X216000Y145500D02*
D03*
X213500Y120000D02*
D03*
X182543Y129000D02*
D03*
X183339Y136000D02*
D03*
X229500Y154500D02*
D03*
X234000Y136500D02*
D03*
X242000Y139000D02*
D03*
X247000Y113500D02*
D03*
Y117000D02*
D03*
X227000Y142500D02*
D03*
X243500Y151500D02*
D03*
X255551Y109000D02*
D03*
X240500D02*
D03*
X200500Y119000D02*
D03*
X237500Y124000D02*
D03*
X214000Y140000D02*
D03*
X219305Y106375D02*
D03*
X204000Y131500D02*
D03*
X220500Y120500D02*
D03*
X218500Y117000D02*
D03*
X207000Y110000D02*
D03*
X189500Y136000D02*
D03*
X203250Y145000D02*
D03*
X196500Y148000D02*
D03*
D54*
X223500Y139705D02*
D03*
D55*
X214445Y115295D02*
D03*
X223500D02*
D03*
X232555D02*
D03*
D56*
X250240Y151000D02*
D03*
X257760D02*
D03*
X204260Y151500D02*
D03*
X196740D02*
D03*
X183760Y148000D02*
D03*
X176240D02*
D03*
X124260Y109000D02*
D03*
X116740D02*
D03*
X161240Y112000D02*
D03*
X168760D02*
D03*
D57*
X163000Y138972D02*
D03*
Y123028D02*
D03*
D58*
X247035Y112500D02*
D03*
X253965D02*
D03*
D59*
X191000Y110535D02*
D03*
Y117465D02*
D03*
Y130465D02*
D03*
Y123535D02*
D03*
D60*
X201500Y129465D02*
D03*
Y112535D02*
D03*
D61*
X117366Y121606D02*
D03*
X119925D02*
D03*
X122484D02*
D03*
X125043D02*
D03*
X127602D02*
D03*
X130161D02*
D03*
X132720D02*
D03*
X135280D02*
D03*
X137839D02*
D03*
X140398D02*
D03*
X142957D02*
D03*
X145516D02*
D03*
X148075D02*
D03*
X150634D02*
D03*
X117366Y150394D02*
D03*
X119925D02*
D03*
X122484D02*
D03*
X125043D02*
D03*
X127602D02*
D03*
X132720D02*
D03*
X130161D02*
D03*
X135280D02*
D03*
X137839D02*
D03*
X140398D02*
D03*
X142957D02*
D03*
X145516D02*
D03*
X148075D02*
D03*
X150634D02*
D03*
M02*
