G04*
G04 #@! TF.GenerationSoftware,Altium Limited,Altium Designer,20.1.10 (176)*
G04*
G04 Layer_Color=32896*
%FSLAX25Y25*%
%MOIN*%
G70*
G04*
G04 #@! TF.SameCoordinates,773EA745-F9F6-403D-839C-D9EBE2D74CCE*
G04*
G04*
G04 #@! TF.FilePolarity,Positive*
G04*
G01*
G75*
%ADD13C,0.00500*%
%ADD67C,0.00197*%
G36*
X183632Y142441D02*
X180468D01*
Y148336D01*
X183632D01*
Y142441D01*
D02*
G37*
G36*
X184132Y125441D02*
X180968D01*
Y131335D01*
X184132D01*
Y125441D01*
D02*
G37*
G36*
X176350Y119106D02*
X175556D01*
Y119894D01*
X176350D01*
Y119106D01*
D02*
G37*
D13*
X174563Y142441D02*
X182437D01*
X174563D02*
Y147559D01*
X182437D01*
Y142441D02*
Y147559D01*
X174563Y142441D02*
X182437D01*
X174563D02*
Y147559D01*
X182437D01*
Y142441D02*
Y147559D01*
X182937Y125441D02*
Y130559D01*
X175063D02*
X182937D01*
X175063Y125441D02*
Y130559D01*
Y125441D02*
X182937D01*
Y130559D01*
X175063D02*
X182937D01*
X175063Y125441D02*
Y130559D01*
Y125441D02*
X182937D01*
D67*
X175563Y117039D02*
X183437D01*
Y121961D01*
X175563D02*
X183437D01*
X175563Y117039D02*
Y121961D01*
Y117039D02*
X183437D01*
Y121961D01*
X175563D02*
X183437D01*
X175563Y117039D02*
Y121961D01*
M02*
