G04*
G04 #@! TF.GenerationSoftware,Altium Limited,Altium Designer,20.1.10 (176)*
G04*
G04 Layer_Color=8388736*
%FSLAX25Y25*%
%MOIN*%
G70*
G04*
G04 #@! TF.SameCoordinates,773EA745-F9F6-403D-839C-D9EBE2D74CCE*
G04*
G04*
G04 #@! TF.FilePolarity,Negative*
G04*
G01*
G75*
%ADD25R,0.05118X0.06496*%
G04:AMPARAMS|DCode=26|XSize=27.87mil|YSize=65.87mil|CornerRadius=0mil|HoleSize=0mil|Usage=FLASHONLY|Rotation=225.000|XOffset=0mil|YOffset=0mil|HoleType=Round|Shape=Rectangle|*
%AMROTATEDRECTD26*
4,1,4,-0.01344,0.03315,0.03315,-0.01344,0.01344,-0.03315,-0.03315,0.01344,-0.01344,0.03315,0.0*
%
%ADD26ROTATEDRECTD26*%

G04:AMPARAMS|DCode=27|XSize=27.87mil|YSize=65.87mil|CornerRadius=0mil|HoleSize=0mil|Usage=FLASHONLY|Rotation=315.000|XOffset=0mil|YOffset=0mil|HoleType=Round|Shape=Rectangle|*
%AMROTATEDRECTD27*
4,1,4,-0.03315,-0.01344,0.01344,0.03315,0.03315,0.01344,-0.01344,-0.03315,-0.03315,-0.01344,0.0*
%
%ADD27ROTATEDRECTD27*%

G04:AMPARAMS|DCode=28|XSize=41.73mil|YSize=61.42mil|CornerRadius=12.4mil|HoleSize=0mil|Usage=FLASHONLY|Rotation=180.000|XOffset=0mil|YOffset=0mil|HoleType=Round|Shape=RoundedRectangle|*
%AMROUNDEDRECTD28*
21,1,0.04173,0.03661,0,0,180.0*
21,1,0.01693,0.06142,0,0,180.0*
1,1,0.02480,-0.00847,0.01831*
1,1,0.02480,0.00847,0.01831*
1,1,0.02480,0.00847,-0.01831*
1,1,0.02480,-0.00847,-0.01831*
%
%ADD28ROUNDEDRECTD28*%
%ADD29R,0.07480X0.03937*%
%ADD30R,0.05708X0.07480*%
%ADD31R,0.04803X0.06574*%
%ADD32R,0.05512X0.05512*%
%ADD33R,0.08661X0.09370*%
%ADD34R,0.05315X0.01968*%
%ADD35R,0.05315X0.03150*%
%ADD36C,0.07284*%
%ADD37R,0.06811X0.06811*%
%ADD38C,0.06811*%
%ADD39C,0.03150*%
D25*
X182043Y145000D02*
D03*
X174957D02*
D03*
X175457Y128000D02*
D03*
X182543D02*
D03*
D26*
X199267Y135677D02*
D03*
X201459Y137869D02*
D03*
X203721Y140132D02*
D03*
X205913Y142324D02*
D03*
X208176Y144587D02*
D03*
X210368Y146779D02*
D03*
X212631Y149041D02*
D03*
X214823Y151233D02*
D03*
X237733Y128323D02*
D03*
X235541Y126131D02*
D03*
X233278Y123868D02*
D03*
X231086Y121676D02*
D03*
X228824Y119413D02*
D03*
X226632Y117221D02*
D03*
X224369Y114959D02*
D03*
X222177Y112767D02*
D03*
D27*
Y151233D02*
D03*
X224369Y149041D02*
D03*
X226632Y146779D02*
D03*
X228824Y144587D02*
D03*
X231086Y142324D02*
D03*
X233278Y140132D02*
D03*
X235541Y137869D02*
D03*
X237733Y135677D02*
D03*
X214823Y112767D02*
D03*
X212631Y114959D02*
D03*
X210368Y117221D02*
D03*
X208176Y119413D02*
D03*
X205913Y121676D02*
D03*
X203721Y123868D02*
D03*
X201459Y126131D02*
D03*
X199267Y128323D02*
D03*
D28*
X182500Y135500D02*
D03*
X174823D02*
D03*
D29*
X166000Y126307D02*
D03*
Y139693D02*
D03*
D30*
X147500Y133815D02*
D03*
Y123185D02*
D03*
D31*
X145850Y141500D02*
D03*
X152150D02*
D03*
D32*
X175366Y119500D02*
D03*
X183634D02*
D03*
D33*
X122028Y111500D02*
D03*
Y151736D02*
D03*
X137500Y111500D02*
D03*
Y151736D02*
D03*
D34*
X139764Y130634D02*
D03*
Y132602D02*
D03*
Y128665D02*
D03*
Y134571D02*
D03*
Y126697D02*
D03*
Y136539D02*
D03*
Y124728D02*
D03*
Y138508D02*
D03*
D35*
Y119020D02*
D03*
Y122169D02*
D03*
Y141067D02*
D03*
Y144217D02*
D03*
D36*
X256500Y162500D02*
D03*
X246500D02*
D03*
X236500D02*
D03*
X226500D02*
D03*
X216500D02*
D03*
X206500D02*
D03*
X196500D02*
D03*
X186500D02*
D03*
X176500D02*
D03*
X166500D02*
D03*
X156500D02*
D03*
X146500D02*
D03*
X136500D02*
D03*
X126500D02*
D03*
X116500D02*
D03*
X117000Y101000D02*
D03*
X127000D02*
D03*
X137000D02*
D03*
X147000D02*
D03*
X157000D02*
D03*
X167000D02*
D03*
X177000D02*
D03*
X187000D02*
D03*
X197000D02*
D03*
X207000D02*
D03*
X217000D02*
D03*
X227000D02*
D03*
X237000D02*
D03*
X247000D02*
D03*
X257000D02*
D03*
D37*
Y121000D02*
D03*
D38*
X247000D02*
D03*
X257000Y131000D02*
D03*
X247000D02*
D03*
X257000Y141000D02*
D03*
X247000D02*
D03*
D39*
X231500Y147500D02*
D03*
X168500Y117000D02*
D03*
X119500Y116500D02*
D03*
X120000Y139000D02*
D03*
Y127500D02*
D03*
X128000Y138000D02*
D03*
Y134000D02*
D03*
X168000Y146000D02*
D03*
X173500Y136000D02*
D03*
X152000Y122000D02*
D03*
X156000Y134000D02*
D03*
X134500Y143000D02*
D03*
X173000Y143500D02*
D03*
X175500Y150000D02*
D03*
X182000Y145500D02*
D03*
X161500Y147500D02*
D03*
X144000Y155500D02*
D03*
X146000Y140500D02*
D03*
X139764Y141067D02*
D03*
X126000Y155000D02*
D03*
X143000Y146500D02*
D03*
X133000Y154500D02*
D03*
X144500Y109500D02*
D03*
Y112000D02*
D03*
X122500Y143500D02*
D03*
X228000Y134000D02*
D03*
X216000Y145500D02*
D03*
X213500Y120000D02*
D03*
X182543Y129000D02*
D03*
X183339Y136000D02*
D03*
X229500Y154500D02*
D03*
X234000Y136500D02*
D03*
X242000Y139000D02*
D03*
X247000Y113500D02*
D03*
Y117000D02*
D03*
X227000Y142500D02*
D03*
X243500Y151500D02*
D03*
X255551Y109000D02*
D03*
X240500D02*
D03*
X200500Y119000D02*
D03*
X237500Y124000D02*
D03*
X214000Y140000D02*
D03*
X219305Y106375D02*
D03*
X204000Y131500D02*
D03*
X220500Y120500D02*
D03*
X218500Y117000D02*
D03*
X207000Y110000D02*
D03*
X189500Y136000D02*
D03*
X203250Y145000D02*
D03*
X196500Y148000D02*
D03*
M02*
