G04*
G04 #@! TF.GenerationSoftware,Altium Limited,Altium Designer,20.1.10 (176)*
G04*
G04 Layer_Color=65535*
%FSLAX25Y25*%
%MOIN*%
G70*
G04*
G04 #@! TF.SameCoordinates,773EA745-F9F6-403D-839C-D9EBE2D74CCE*
G04*
G04*
G04 #@! TF.FilePolarity,Positive*
G04*
G01*
G75*
%ADD10C,0.01181*%
%ADD11C,0.00787*%
%ADD12C,0.01575*%
%ADD13C,0.00500*%
D10*
X187716Y135500D02*
G03*
X187716Y135500I-394J0D01*
G01*
D11*
X165606Y122370D02*
G03*
X165606Y122370I-394J0D01*
G01*
X144705Y146500D02*
G03*
X144705Y146500I-394J0D01*
G01*
X127382Y114020D02*
X132146D01*
X127382Y149216D02*
X132146D01*
X110807Y114020D02*
X116673D01*
X110807D02*
Y149216D01*
X116673D01*
D12*
X257787Y113126D02*
G03*
X257787Y113126I-787J0D01*
G01*
D13*
X111500Y167500D02*
X261500D01*
X111500Y157500D02*
Y167500D01*
Y157500D02*
X261500D01*
Y167500D01*
X174724Y131583D02*
X182598D01*
X174724Y139417D02*
X182598D01*
X112000Y96000D02*
X262000D01*
Y106000D01*
X112000D02*
X262000D01*
X112000Y96000D02*
Y106000D01*
X170921Y127094D02*
Y138906D01*
X161079Y127094D02*
Y138906D01*
X261508Y116000D02*
Y146000D01*
X242492D02*
X261508D01*
X242492Y116000D02*
Y146000D01*
Y116000D02*
X261508D01*
M02*
